<svg xmlns="http://www.w3.org/2000/svg" viewBox="0 0 480 600" fill="none" role="img" aria-label="Illustration of a Nairobi hairstylist client with knotless braids">
  <defs>
    <linearGradient id="hbg" x1="0" y1="0" x2="0" y2="1">
      <stop offset="0" stop-color="#C4663F"/>
      <stop offset=".52" stop-color="#A8512E"/>
      <stop offset="1" stop-color="#2A1622"/>
    </linearGradient>
    <radialGradient id="hhalo" cx=".5" cy=".32" r=".62">
      <stop offset="0" stop-color="#F2D9CE" stop-opacity=".55"/>
      <stop offset="1" stop-color="#F2D9CE" stop-opacity="0"/>
    </radialGradient>
  </defs>

  <rect width="480" height="600" fill="url(#hbg)"/>
  <rect width="480" height="600" fill="url(#hhalo)"/>

  <g fill="#8FA486" opacity=".45">
    <ellipse cx="436" cy="64" rx="36" ry="16" transform="rotate(34 436 64)"/>
    <ellipse cx="460" cy="116" rx="30" ry="13" transform="rotate(-22 460 116)"/>
    <ellipse cx="34" cy="436" rx="32" ry="14" transform="rotate(-42 34 436)"/>
  </g>

  <g fill="#F2D9CE">
    <path d="M68 152l6 15 15 6-15 6-6 15-6-15-15-6 15-6z" opacity=".9"/>
    <path d="M412 198l4 11 11 4-11 4-4 11-4-11-11-4 11-4z" opacity=".8"/>
    <circle cx="56" cy="262" r="4" opacity=".7"/>
    <circle cx="428" cy="304" r="5" opacity=".7"/>
  </g>

  <path d="M96 600V300a144 144 0 0 1 288 0v300Z" fill="#FBF6EE" opacity=".08"/>

  <path d="M104 600V486c0-58 61-96 136-96s136 38 136 96V600Z" fill="#FBF6EE"/>
  <path d="M104 600V486c0-58 61-96 136-96s136 38 136 96V600Z" fill="#E0A48B" opacity=".22"/>
  <path d="M180 600c10-66 38-104 60-104s50 38 60 104Z" fill="#E0A48B" opacity=".35"/>

  <path d="M216 322h48v66c0 15-48 15-48 0Z" fill="#5A3B28"/>

  <ellipse cx="240" cy="224" rx="98" ry="106" fill="#1E1118"/>

  <ellipse cx="240" cy="262" rx="74" ry="84" fill="#6E4A33"/>
  <path d="M166 262a74 84 0 0 0 148 0c-7 41-41 71-74 71s-67-30-74-71Z" fill="#5F3F2C" opacity=".5"/>

  <ellipse cx="168" cy="266" rx="12" ry="16" fill="#5F3F2C"/>
  <ellipse cx="312" cy="266" rx="12" ry="16" fill="#5F3F2C"/>
  <circle cx="168" cy="298" r="11" fill="none" stroke="#D8A85A" stroke-width="5"/>
  <circle cx="312" cy="298" r="11" fill="none" stroke="#D8A85A" stroke-width="5"/>

  <g fill="#C4663F" opacity=".33">
    <ellipse cx="201" cy="291" rx="13" ry="9"/>
    <ellipse cx="279" cy="291" rx="13" ry="9"/>
  </g>
  <g stroke="#3A241A" stroke-width="5" stroke-linecap="round" fill="none">
    <path d="M195 243q16-12 33 0"/>
    <path d="M252 243q16-12 33 0"/>
    <path d="M197 266q15 11 30 0"/>
    <path d="M253 266q15 11 30 0"/>
  </g>
  <path d="M233 285q7 9 14 0" stroke="#5F3F2C" stroke-width="4" fill="none" stroke-linecap="round"/>
  <path d="M221 305q19 17 38 0" stroke="#7A3B2E" stroke-width="7" fill="none" stroke-linecap="round"/>

  <path d="M165 252c0-72 37-106 75-106s75 34 75 106c-19-35-41-52-75-52s-56 17-75 52Z" fill="#1E1118"/>
  <g stroke="#3A2230" stroke-width="3" fill="none" stroke-linecap="round" opacity=".8">
    <path d="M210 156q-7 30-23 56"/>
    <path d="M240 150v62"/>
    <path d="M270 156q7 30 23 56"/>
  </g>

  <g stroke="#1E1118" stroke-width="15" fill="none" stroke-linecap="round">
    <path d="M150 300Q137 400 150 504"/>
    <path d="M171 314Q158 410 173 508"/>
    <path d="M193 326Q183 420 199 506"/>
    <path d="M215 334Q209 430 221 500"/>
    <path d="M330 300Q343 400 330 504"/>
    <path d="M309 314Q322 410 307 508"/>
    <path d="M287 326Q297 420 281 506"/>
    <path d="M265 334Q271 430 259 500"/>
  </g>
  <g stroke="#3A2230" stroke-width="4" fill="none" stroke-linecap="round" opacity=".65">
    <path d="M150 300Q137 400 150 504"/>
    <path d="M171 314Q158 410 173 508"/>
    <path d="M330 300Q343 400 330 504"/>
    <path d="M309 314Q322 410 307 508"/>
  </g>

  <g fill="#D8A85A">
    <rect x="159" y="454" width="15" height="9" rx="3"/>
    <rect x="189" y="462" width="15" height="9" rx="3"/>
    <rect x="306" y="454" width="15" height="9" rx="3"/>
    <rect x="276" y="462" width="15" height="9" rx="3"/>
  </g>

  <g fill="#D8A85A">
    <circle cx="206" cy="400" r="4"/><circle cx="215" cy="408" r="4"/><circle cx="224" cy="414" r="4"/>
    <circle cx="232" cy="418" r="4"/><circle cx="240" cy="420" r="5"/><circle cx="248" cy="418" r="4"/>
    <circle cx="256" cy="414" r="4"/><circle cx="265" cy="408" r="4"/><circle cx="274" cy="400" r="4"/>
  </g>
</svg>
