<svg xmlns="http://www.w3.org/2000/svg" viewBox="0 0 300 375" fill="none" role="img" aria-label="Locs and twists illustration">
  <defs>
    <linearGradient id="lbg" x1="0" y1="0" x2="0" y2="1">
      <stop offset="0" stop-color="#3F2233"/>
      <stop offset="1" stop-color="#1B1014"/>
    </linearGradient>
  </defs>
  <rect width="300" height="375" fill="url(#lbg)"/>
  <path d="M64 375V210a86 86 0 0 1 172 0v165Z" fill="#FBF6EE" opacity=".07"/>
  <path d="M236 44l5 13 13 5-13 5-5 13-5-13-13-5 13-5z" fill="#D8A85A" opacity=".8"/>

  <path d="M34 375V312c0-40 52-64 116-64s116 24 116 64v63Z" fill="#FBF6EE"/>
  <path d="M134 198h32v46c0 11-32 11-32 0Z" fill="#5A3B28"/>

  <ellipse cx="150" cy="124" rx="68" ry="64" fill="#23161D"/>
  <ellipse cx="150" cy="155" rx="52" ry="58" fill="#6E4A33"/>
  <path d="M98 155a52 58 0 0 0 104 0c-5 29-29 50-52 50s-47-21-52-50Z" fill="#5F3F2C" opacity=".5"/>

  <ellipse cx="100" cy="157" rx="8" ry="11" fill="#5F3F2C"/>
  <ellipse cx="200" cy="157" rx="8" ry="11" fill="#5F3F2C"/>
  <circle cx="100" cy="180" r="8" fill="none" stroke="#D8A85A" stroke-width="4"/>
  <circle cx="200" cy="180" r="8" fill="none" stroke="#D8A85A" stroke-width="4"/>

  <g fill="#C4663F" opacity=".33"><ellipse cx="124" cy="170" rx="10" ry="7"/><ellipse cx="176" cy="170" rx="10" ry="7"/></g>
  <g stroke="#3A241A" stroke-width="4" stroke-linecap="round" fill="none">
    <path d="M118 138q10-8 22 0"/><path d="M160 138q10-8 22 0"/>
    <path d="M120 156q10 8 20 0"/><path d="M160 156q10 8 20 0"/>
  </g>
  <path d="M144 168q6 7 12 0" stroke="#5F3F2C" stroke-width="3" fill="none" stroke-linecap="round"/>
  <path d="M136 182q14 12 28 0" stroke="#7A3B2E" stroke-width="5" fill="none" stroke-linecap="round"/>

  <path d="M100 150c0-46 24-70 50-70s50 24 50 70c-12-24-28-35-50-35s-38 11-50 35Z" fill="#23161D"/>

  <g stroke="#23161D" stroke-width="14" fill="none" stroke-linecap="round">
    <path d="M96 150Q86 240 96 340"/>
    <path d="M118 168Q108 250 118 344"/>
    <path d="M204 150Q214 240 204 340"/>
    <path d="M182 168Q192 250 182 344"/>
    <path d="M150 196Q146 270 150 338"/>
  </g>
  <g fill="#1B1014">
    <circle cx="93" cy="210" r="8"/><circle cx="98" cy="262" r="8"/><circle cx="93" cy="312" r="8"/>
    <circle cx="115" cy="224" r="8"/><circle cx="119" cy="296" r="8"/>
    <circle cx="207" cy="210" r="8"/><circle cx="202" cy="262" r="8"/><circle cx="207" cy="312" r="8"/>
    <circle cx="185" cy="224" r="8"/><circle cx="181" cy="296" r="8"/>
    <circle cx="150" cy="240" r="8"/><circle cx="150" cy="300" r="8"/>
  </g>
  <g fill="#D8A85A">
    <circle cx="96" cy="332" r="6"/><circle cx="204" cy="332" r="6"/>
  </g>
</svg>
