<svg xmlns="http://www.w3.org/2000/svg" viewBox="0 0 300 375" fill="none" role="img" aria-label="Natural afro hair illustration">
  <defs>
    <linearGradient id="abg" x1="0" y1="0" x2="0" y2="1">
      <stop offset="0" stop-color="#D8A85A"/>
      <stop offset="1" stop-color="#A8512E"/>
    </linearGradient>
  </defs>
  <rect width="300" height="375" fill="url(#abg)"/>
  <path d="M64 375V210a86 86 0 0 1 172 0v165Z" fill="#FBF6EE" opacity=".10"/>
  <path d="M58 50l5 13 13 5-13 5-5 13-5-13-13-5 13-5z" fill="#FBF6EE" opacity=".85"/>
  <circle cx="244" cy="270" r="5" fill="#FBF6EE" opacity=".7"/>

  <path d="M34 375V312c0-40 52-64 116-64s116 24 116 64v63Z" fill="#FBF6EE"/>
  <path d="M134 198h32v46c0 11-32 11-32 0Z" fill="#5A3B28"/>

  <circle cx="150" cy="120" r="86" fill="#1E1118"/>
  <g fill="#3A2230" opacity=".65">
    <circle cx="104" cy="74" r="15"/><circle cx="150" cy="58" r="16"/><circle cx="196" cy="74" r="15"/>
    <circle cx="78" cy="118" r="15"/><circle cx="222" cy="118" r="15"/>
    <circle cx="92" cy="162" r="14"/><circle cx="208" cy="162" r="14"/>
    <circle cx="150" cy="98" r="14"/>
  </g>

  <ellipse cx="150" cy="158" rx="52" ry="58" fill="#6E4A33"/>
  <path d="M98 158a52 58 0 0 0 104 0c-5 29-29 50-52 50s-47-21-52-50Z" fill="#5F3F2C" opacity=".5"/>

  <ellipse cx="100" cy="160" rx="8" ry="11" fill="#5F3F2C"/>
  <ellipse cx="200" cy="160" rx="8" ry="11" fill="#5F3F2C"/>
  <circle cx="100" cy="183" r="8" fill="none" stroke="#D8A85A" stroke-width="4"/>
  <circle cx="200" cy="183" r="8" fill="none" stroke="#D8A85A" stroke-width="4"/>

  <g fill="#C4663F" opacity=".33"><ellipse cx="124" cy="174" rx="10" ry="7"/><ellipse cx="176" cy="174" rx="10" ry="7"/></g>
  <g stroke="#3A241A" stroke-width="4" stroke-linecap="round" fill="none">
    <path d="M118 142q10-8 22 0"/><path d="M160 142q10-8 22 0"/>
    <path d="M120 160q10 8 20 0"/><path d="M160 160q10 8 20 0"/>
  </g>
  <path d="M144 172q6 7 12 0" stroke="#5F3F2C" stroke-width="3" fill="none" stroke-linecap="round"/>
  <path d="M136 186q14 12 28 0" stroke="#7A3B2E" stroke-width="5" fill="none" stroke-linecap="round"/>
</svg>
