<svg xmlns="http://www.w3.org/2000/svg" viewBox="0 0 300 375" fill="none" role="img" aria-label="Knotless braids illustration">
  <defs>
    <linearGradient id="bbg" x1="0" y1="0" x2="0" y2="1">
      <stop offset="0" stop-color="#C4663F"/>
      <stop offset="1" stop-color="#2A1622"/>
    </linearGradient>
  </defs>
  <rect width="300" height="375" fill="url(#bbg)"/>
  <path d="M64 375V210a86 86 0 0 1 172 0v165Z" fill="#FBF6EE" opacity=".08"/>
  <path d="M150 36l5 13 13 5-13 5-5 13-5-13-13-5 13-5z" fill="#F2D9CE" opacity=".85"/>

  <path d="M34 375V312c0-40 52-64 116-64s116 24 116 64v63Z" fill="#FBF6EE"/>
  <path d="M134 198h32v46c0 11-32 11-32 0Z" fill="#5A3B28"/>

  <ellipse cx="150" cy="130" rx="72" ry="74" fill="#1E1118"/>
  <ellipse cx="150" cy="155" rx="52" ry="58" fill="#6E4A33"/>
  <path d="M98 155a52 58 0 0 0 104 0c-5 29-29 50-52 50s-47-21-52-50Z" fill="#5F3F2C" opacity=".5"/>

  <ellipse cx="100" cy="157" rx="8" ry="11" fill="#5F3F2C"/>
  <ellipse cx="200" cy="157" rx="8" ry="11" fill="#5F3F2C"/>
  <circle cx="100" cy="180" r="8" fill="none" stroke="#D8A85A" stroke-width="4"/>
  <circle cx="200" cy="180" r="8" fill="none" stroke="#D8A85A" stroke-width="4"/>

  <g fill="#C4663F" opacity=".33"><ellipse cx="124" cy="170" rx="10" ry="7"/><ellipse cx="176" cy="170" rx="10" ry="7"/></g>
  <g stroke="#3A241A" stroke-width="4" stroke-linecap="round" fill="none">
    <path d="M118 138q10-8 22 0"/><path d="M160 138q10-8 22 0"/>
    <path d="M120 156q10 8 20 0"/><path d="M160 156q10 8 20 0"/>
  </g>
  <path d="M144 168q6 7 12 0" stroke="#5F3F2C" stroke-width="3" fill="none" stroke-linecap="round"/>
  <path d="M136 182q14 12 28 0" stroke="#7A3B2E" stroke-width="5" fill="none" stroke-linecap="round"/>

  <path d="M98 148c0-50 26-74 52-74s52 24 52 74c-13-25-29-37-52-37s-39 12-52 37Z" fill="#1E1118"/>
  <g stroke="#3A2230" stroke-width="2.5" fill="none" stroke-linecap="round" opacity=".8">
    <path d="M132 84q-5 20-15 38"/><path d="M150 80v42"/><path d="M168 84q5 20 15 38"/>
  </g>

  <g stroke="#1E1118" stroke-width="12" fill="none" stroke-linecap="round">
    <path d="M92 178Q82 250 92 332"/>
    <path d="M110 192Q100 260 112 336"/>
    <path d="M208 178Q218 250 208 332"/>
    <path d="M190 192Q200 260 188 336"/>
    <path d="M150 215Q146 270 152 330"/>
  </g>
  <g stroke="#3A2230" stroke-width="3" fill="none" stroke-linecap="round" opacity=".6">
    <path d="M92 178Q82 250 92 332"/><path d="M208 178Q218 250 208 332"/>
  </g>
  <g fill="#D8A85A">
    <rect x="84" y="296" width="12" height="8" rx="3"/>
    <rect x="200" y="296" width="12" height="8" rx="3"/>
  </g>
</svg>
