<svg xmlns="http://www.w3.org/2000/svg" viewBox="0 0 320 120">
  <rect width="320" height="120" fill="#FBF6EE"/>
  <g transform="translate(28 16) scale(1.375)" fill="#1A1512">
    <circle cx="32" cy="32" r="22"/><circle cx="14" cy="24" r="9"/><circle cx="22" cy="13" r="8.5"/>
    <circle cx="32" cy="9" r="8.5"/><circle cx="42" cy="13" r="8.5"/><circle cx="50" cy="24" r="9"/>
    <circle cx="13" cy="36" r="8"/><circle cx="51" cy="36" r="8"/><circle cx="20" cy="46" r="7.5"/><circle cx="44" cy="46" r="7.5"/>
  </g>
  <g transform="translate(28 16) scale(1.375)" fill="#8A5A2E">
    <circle cx="32" cy="20" r="4.4"/>
    <path d="M27.6 24.5c1-1.4 2.6-2.3 4.4-2.3s3.4.9 4.4 2.3c1.5 2.1 1.9 5 1.9 8.3h-12.6c0-3.3.4-6.2 1.9-8.3Z"/>
    <rect x="24.4" y="32.4" width="3.1" height="18" rx="1.55"/><rect x="29.4" y="32.4" width="3.1" height="21.5" rx="1.55"/>
    <rect x="34.5" y="32.4" width="3.1" height="21.5" rx="1.55"/><rect x="39.5" y="32.4" width="3.1" height="18" rx="1.55"/>
  </g>
  <text x="138" y="62" font-family="Fraunces, Georgia, serif" font-size="44" font-weight="600" fill="#6B4327">kichana</text>
  <text x="140" y="86" font-family="'Plus Jakarta Sans', Arial, sans-serif" font-size="14" letter-spacing="2" fill="#A98D6B">HAIR SERVICE APP</text>
</svg>
